<svg viewBox="0 0 692 500" width="346" height="250" xmlns="http://www.w3.org/2000/svg">
  <path d="M654.6 490.3c-12.8 12.8-33.6 12.7-46.4 0-7.8-7.7-15.6-15.6-23.4-23.3a38.688 38.688 0 0 0-54.7 0c-7.8 7.8-15.6 15.6-23.4 23.3a32.833 32.833 0 0 1-46.4 0c-7.8-7.7-15.6-15.6-23.4-23.3-15.2-15.1-39.6-15.1-54.8 0-7.7 7.8-15.5 15.6-23.3 23.3-12.8 12.7-33.5 12.8-46.3 0L277 454.8v-60.5c10.4 10.4 20.9 20.8 31.4 31.2 15.2 15.1 39.4 15.2 54.6 0 7.8-7.8 15.5-15.6 23.3-23.3 12.8-12.7 33.6-12.7 46.4 0 7.8 7.8 15.5 15.6 23.3 23.3 15.2 15.1 39.6 15.1 54.7 0 7.8-7.8 15.6-15.6 23.4-23.3 12.8-12.7 33.5-12.7 46.4 0 7.8 7.8 15.6 15.6 23.4 23.3 15.1 15.1 39.5 15.1 54.7 0l31.3-31.2v60.5c-11.7 11.9-23.5 23.7-35.3 35.5m-295.8-68.9 23.3-23.3c15.3-15.1 39.5-15.1 54.8 0 7.8 7.7 15.6 15.5 23.4 23.3 12.9 12.9 33.4 12.9 46.4 0 7.8-7.8 15.6-15.6 23.4-23.3 15.3-15.1 39.5-15.1 54.7 0 7.8 7.7 15.6 15.5 23.4 23.3 12.9 12.8 33.5 12.9 46.4 0l35.5-35.4v-60.6c-10.4 10.4-20.8 20.9-31.3 31.3-15.2 15.1-39.6 15.1-54.7 0-9.2-9.1-18.4-18.3-27.5-27.5a26.979 26.979 0 0 0-38.1 0c-9.2 9.2-18.3 18.4-27.5 27.5-15.1 15.1-39.5 15.1-54.7 0-9.2-9.1-18.3-18.3-27.5-27.5-10.6-10.5-27.6-10.5-38.1 0-9.2 9.2-18.3 18.4-27.5 27.5-15.1 15-39.5 15.1-54.6 0l-31.4-31.3V386c11.9 11.8 23.7 23.6 35.5 35.4 12.7 12.9 33.2 12.9 46.1 0m152-210.6c6.4-6.4 12.8-12.9 19.3-19.3 15.1-15 39.5-15 54.7 0l19.3 19.3c15.1 15 39.6 15 54.7 0l31.3-31.3v129.4c-13.2 13.2-26.3 26.3-39.6 39.5-10.6 10.5-27.6 10.5-38.2 0-9.2-9.2-18.3-18.4-27.6-27.6-15.1-15-39.7-14.9-54.7.1-9.2 9.1-18.3 18.3-27.5 27.5-10.5 10.5-27.5 10.5-38.1 0-9.2-9.2-18.3-18.4-27.5-27.5-15.1-15-39.7-15-54.8-.1-9.2 9.1-18.2 18.4-27.4 27.6-10.6 10.5-27.5 10.5-38 0L277 308.9V179.5c10.4 10.4 20.9 20.9 31.4 31.3 15.1 15 39.5 15 54.6 0 6.4-6.4 12.8-12.9 19.1-19.3 15.1-15 39.7-15 54.8 0 6.4 6.4 12.8 12.9 19.1 19.3 15.2 15 39.7 15 54.8 0M35.4 490.3c12.9 12.8 33.7 12.7 46.5 0 7.8-7.7 15.6-15.6 23.3-23.3 15.3-15.1 39.6-15.1 54.8 0 7.8 7.8 15.5 15.6 23.3 23.3 12.8 12.6 33.7 12.8 46.4 0l35.4-35.5v-60.5l-31.2 31.2a38.688 38.688 0 0 1-54.7 0c-7.8-7.8-15.5-15.6-23.4-23.3-12.8-12.7-33.6-12.7-46.5 0-7.8 7.8-15.5 15.6-23.3 23.3-15.1 15.1-39.6 15.1-54.8 0L0 394.3v60.5c11.8 11.9 23.6 23.7 35.4 35.5m50.7-133.6c-15.1 15-39.7 15.1-54.8 0L0 325.4V386l35.4 35.4c13 12.9 33.6 12.8 46.5 0l23.3-23.3c15.3-15.1 39.5-15.1 54.8 0 7.8 7.7 15.5 15.5 23.3 23.3 12.9 12.8 33.5 12.9 46.4 0l35.4-35.4v-60.6c-10.4 10.4-20.8 20.9-31.2 31.3a38.688 38.688 0 0 1-54.7 0c-9.2-9.1-18.3-18.3-27.5-27.5-10.6-10.5-27.6-10.5-38.2 0-9.1 9.2-18.2 18.4-27.4 27.5m-8.3-8.3c9.5-8.9 18.3-18.4 27.4-27.6 15-14.9 39.8-14.9 54.8 0 9.2 9.1 18.3 18.4 27.5 27.6 10.5 10.5 27.6 10.5 38.2 0l39.5-39.5V179.5c-10.4 10.4-20.8 20.9-31.3 31.3-16.2 14.8-38.6 15.2-54.7 0-6.6-6.3-12.8-12.9-19.2-19.3-15.1-15-39.7-15-54.8 0-6.4 6.4-12.7 12.9-19.1 19.3-15.1 14.9-39.8 15-54.8 0L0 179.5v129.4c13.2 13.2 26.4 26.4 39.6 39.5 10.9 10.8 27.2 10.2 38.2 0" fill="#00aae5"/>
  <path d="M688.3 134.1c-1.8 0-3.2-.5-4.3-1.5-1.2-1-1.8-2.6-1.8-5.2V88.7c0-4.8-.9-7.5-.9-7.5l5.7-1.1s1 3.1 1 8.7v37.3c0 2.9.4 3.7 2.1 3.7l.7-.1 1.2 3.7c-1.5.5-2.1.7-3.7.7m-21.5-.8V97l5.9-1v37.3zm3.1-43.3c-2.5 0-4.5-2-4.5-4.4 0-2.5 2-4.5 4.5-4.5s4.5 2 4.5 4.5c-.1 2.5-2 4.4-4.5 4.4m-20.1 44.1c-5.2 0-9.1-1.8-11.6-5.5-2.4-3.5-3.5-7.5-3.5-13 0-8 2.4-12.4 5.5-15.5 2.9-2.9 6-4.3 9.9-4.3 4.6 0 7.3 1.8 10 4l-3.2 3.9c-2.6-2.1-4.2-2.9-7-2.9-2.9 0-5.6 1.6-6.9 4.1-1.4 2.6-2.1 6.6-2.1 11.9 0 8.2 3.1 12.7 9 12.7 2.9 0 5.7-1.4 7.8-4l3.1 3.7c-3.2 3.6-6.5 4.9-11 4.9m-28.3-.8v-24.7c0-3.9-.3-4.8-1.3-6.1-.8-1-2.3-1.5-4-1.5-2.9 0-7.5 2.3-10.1 5.1v27.2h-5.6v-28.1c0-5.2-1.4-7.7-1.4-7.7l5.6-1.5s1.3 2.7 1.3 5.7c3.8-3.8 7.6-5.6 11.5-5.6 4 0 7.5 2.1 8.9 5.3.6 1.3.9 2.8.9 4.2v27.7zm-32.1 1.6c-2.4-2-3.4-3.4-4-5.9-2.8 3.7-6.6 5.6-11.6 5.6-4.6 0-8.1-2-9.6-5.2-.7-1.4-1-3.3-1-5.4V97.2l5.6-1.1v26.2c0 3.4.5 5 2.2 6.2 1.2.8 2.9 1.2 4.5 1.2 3.6 0 7.3-2.6 9.3-6.6V97.2l5.6-.9v26.6c0 4.6.7 6.4 2.5 8.1zm-41.2-29.8c-1.5-3.2-4.8-4.7-7.8-4.7-3.2 0-6.2 1.5-7.5 4-1.2 2.3-1.8 5.2-1.8 9.5 0 5.1.9 9.7 2.3 11.9 1.3 2.2 4.2 3.7 7.4 3.7 3.8 0 6.7-2 7.9-5.5.8-2.3 1.1-4.3 1.1-7.9.1-5.1-.4-8.5-1.6-11m-7.5 29.2c-10 0-15.8-7.4-15.8-19.4 0-11.9 5.9-19.1 15.5-19.1 6.1 0 10 2.8 12.5 6.4 2.3 3.3 3.4 7.6 3.4 13.6.1 12.1-6.4 18.5-15.6 18.5m-31.2-.2c-5.4 0-10.8-2.3-14.7-6.7-4.2-4.8-6-11.7-6-19.1 0-15 8.9-25.9 21.1-25.9 4.8 0 9.2 1.5 12.7 4.1l-3.2 3.9c-3-2.2-5.9-3.2-9.5-3.2-5.8 0-10 3-12.4 8.6-1.5 3.4-2.1 7.4-2.1 13.3 0 4.8.4 7.7 1.6 10.6 2.6 6.3 7.8 9.4 13.5 9.4 3.7 0 6.6-.9 9.8-3.2l3.2 4c-4 2.8-9 4.2-14 4.2m-49.7.6c-2.4 7.3-5.4 12.2-11.8 13.7l-1.7-3.9c4.7-1.5 6.4-3.8 8.4-11.2l-2.4.4c-.4-2.3-2.4-9.5-3.7-13.1l-7.8-22.9 5.6-1.9 7.5 23.7c1.1 3.4 2.2 9.1 2.2 9.1h.1s1.4-4.7 2.3-7.7l7.2-24h6.5zm-22.7-33.5h-7.6v23.5c0 4 1.1 5.4 4.7 5.4 1.6 0 2.6-.2 3.6-.7l.8 3.7c-1.8 1-3.9 1.5-6.4 1.5-1.9 0-3.4-.4-4.8-1-2.6-1.2-3.5-3.6-3.5-7.2v-25.1h-4.8V97h4.8c0-3.5.6-9.2.6-9.2l6-1.3s-.7 5.7-.7 10.5h9.2zm-29.3 32.1v-24.7c0-3.9-.3-4.8-1.3-6.1-.8-1-2.3-1.5-4-1.5-2.9 0-7.5 2.3-10.1 5.1v27.2h-5.6v-28.1c0-5.2-1.4-7.7-1.4-7.7L391 96s1.3 2.7 1.3 5.7c3.8-3.8 7.6-5.6 11.5-5.6 4 0 7.5 2.1 8.9 5.3.6 1.3.9 2.8.9 4.2v27.7zm-32.1 1.6c-2.4-2-3.4-3.4-4-5.9-2.8 3.7-6.6 5.6-11.6 5.6-4.6 0-8.1-2-9.6-5.2-.7-1.4-.9-3.3-.9-5.4V97.2l5.6-1.1v26.2c0 3.4.5 5 2.2 6.2 1.2.8 2.9 1.2 4.5 1.2 3.6 0 7.3-2.6 9.3-6.6V97.2l5.6-.9v26.6c0 4.6.7 6.4 2.5 8.1zm-41.3-29.8c-1.5-3.2-4.8-4.7-7.8-4.7-3.2 0-6.2 1.5-7.5 4-1.2 2.3-1.8 5.2-1.8 9.5 0 5.1.9 9.7 2.3 11.9 1.3 2.2 4.2 3.7 7.4 3.7 3.8 0 6.7-2 7.9-5.5.8-2.3 1.1-4.3 1.1-7.9.1-5.1-.4-8.5-1.6-11m-7.5 29.2c-10 0-15.7-7.4-15.7-19.4 0-11.9 5.9-19.1 15.5-19.1 6.1 0 10 2.8 12.5 6.4 2.3 3.3 3.4 7.6 3.4 13.6 0 12.1-6.5 18.5-15.7 18.5m-30.8-.2c-5.4 0-10.8-2.3-14.6-6.7-4.2-4.8-6-11.7-6-19.1 0-15 8.9-25.9 21.1-25.9 4.8 0 9.2 1.5 12.7 4.1l-3.2 3.9c-3-2.2-5.9-3.2-9.5-3.2-5.8 0-10 3-12.4 8.6-1.5 3.4-2.1 7.4-2.1 13.3 0 4.8.4 7.7 1.6 10.6 2.6 6.3 7.8 9.4 13.5 9.4 3.7 0 6.6-.9 9.8-3.2l3.2 4c-4.1 2.8-9.1 4.2-14.1 4.2m381.6-75.3-4.4-7.7c-.7-1.3-3-5.7-3.3-6.3-.3 1-2 4.5-4.2 8.2l-3.5 5.8h-14.2l15.6-22.5L652 18.6l11.4-3.2c3.1 5.2 4.1 7 5.7 10.3l1.3 2.8c.3-.7 1.5-3.6 3.7-8.2.7-1.4 1.6-3.1 2-3.6h13l-12.5 19.4 15.1 22.7zm-42.1-26.1c0-3.1-.3-4.8-1.3-6.3-1.1-1.6-2.6-2.5-4.9-2.5-4.2 0-6.6 3.3-6.6 9.1v.2h12.8zm-12.9 8.5v.3c0 6.5 3.2 10.2 8.9 10.2 3.8 0 7.3-1.4 10.7-4.2l4.3 6.6c-4.9 4-10 5.8-15.9 5.8-12.1 0-19.9-8.6-19.9-21.8 0-7.6 1.6-12.6 5.3-16.7 3.5-3.9 7.7-5.7 13.3-5.7 4.9 0 9.5 1.6 12.2 4.4 3.9 3.9 5.6 9.6 5.6 18.4V41h-24.5zm-35.3 19c-5.2 0-10.9-1.6-17-4.9l3.9-8.1c3.4 2.1 9.2 4.8 14 4.8 3.1 0 5.6-2.1 5.6-4.8 0-2.9-2.1-4.4-6.5-5.2l-4.9-.9c-2.8-.5-6.3-2.5-7.7-4.3-1.5-1.8-2.4-4.9-2.4-7.6 0-8.2 6.5-13.8 16.3-13.8 6.7 0 11.2 2.1 15.1 4l-3.6 7.4c-4.2-2.1-7.2-3-10.4-3s-5.4 1.7-5.4 4.1c0 2.1 1.4 3.3 5.3 4.3l5.1 1.3c5.2 1.3 6.9 2.9 8.4 4.8 1.6 2 2.3 4.4 2.3 7.2-.1 8.7-7.4 14.7-18.1 14.7m-39.4 0c-5.2 0-10.9-1.6-17-4.9l3.9-8.1c3.4 2.1 9.2 4.8 14 4.8 3.1 0 5.6-2.1 5.6-4.8 0-2.9-2.1-4.4-6.5-5.2l-4.9-.9c-2.8-.5-6.3-2.5-7.7-4.3-1.5-1.8-2.4-4.9-2.4-7.6 0-8.2 6.5-13.8 16.3-13.8 6.7 0 11.2 2.1 15.1 4l-3.6 7.4c-4.2-2.1-7.2-3-10.4-3s-5.4 1.7-5.4 4.1c0 2.1 1.4 3.3 5.3 4.3l5.1 1.3c5.2 1.3 6.9 2.9 8.4 4.8 1.6 2 2.3 4.4 2.3 7.2-.1 8.7-7.3 14.7-18.1 14.7m-30.1-.2c-1.4-1-2.5-2.4-3.3-4.1-2.7 2.6-6.7 4-11.1 4-5.9 0-11-2.8-12.4-6.8-.7-1.9-.9-4.1-.9-8.4v-27l10.9-2.1v27.1c0 3.8.3 5.8.9 6.9.6 1.2 2.2 2 3.9 2 2.7 0 6-2 6.8-4V17.9l10.5-2.2v32.2c0 2.8.9 5.7 2.5 7.7zm-58.9.1c-6.5 0-13.8-1.9-19.5-5.2l4.3-9c5.4 2.8 10 4.6 15.7 4.6 6.6 0 10-2.7 10-7.8 0-3.7-2.4-6-7.5-7.4l-6.3-1.7c-5.7-1.6-9.2-3.8-11.3-7.2-1.6-2.5-2.4-5.5-2.4-8.7C442 7.3 450.4 0 462.5 0c7 0 14.1 2.1 19.1 5.8l-5.4 8.2c-5.2-3.1-9.1-4.4-13.3-4.4-4.7 0-8 2.7-8 6.6 0 3 1.6 4.4 6.3 5.8l6.9 1.9c9.4 2.5 14.5 8.6 14.5 17 0 11.5-9.4 19.2-23.6 19.2m-47-.3c-5.6 0-10-2.5-11.4-6.2-.7-1.8-.7-2.6-.7-6.5V24.3h-4.2v-7.6h4.2c0-4.1 0-6.8.4-10l11.2-2.8c-.4 3.9-.7 8.5-.7 12.8h9.9l-2.8 7.6h-7.1v21.2c0 5.4 1 6.7 4.8 6.7 1 0 2-.2 3.9-.8l1.4 6.6c-3.1 1.3-6 1.8-8.9 1.8m-38.2.4c-5.2 0-10.9-1.6-17-4.9l4-8.1c3.4 2.1 9.2 4.8 14 4.8 3.1 0 5.6-2.1 5.6-4.8 0-2.9-2.1-4.4-6.5-5.2l-4.9-.9c-2.8-.5-6.3-2.5-7.7-4.3-1.5-1.8-2.4-4.9-2.4-7.6 0-8.2 6.5-13.8 16.3-13.8 6.7 0 11.2 2.1 15.1 4l-3.6 7.4c-4.2-2.1-7.2-3-10.4-3s-5.3 1.7-5.3 4.1c0 2.1 1.4 3.3 5.3 4.3l5.1 1.3c5.2 1.3 6.9 2.9 8.4 4.8 1.6 2 2.3 4.4 2.3 7.2-.3 8.7-7.6 14.7-18.3 14.7m-36.2-19.8c-7.7 0-10.3 1.4-10.3 6.4 0 3.3 2.1 5.5 4.9 5.5 2.1 0 4.1-1.1 5.8-2.9l.2-9.1h-.6zm9.3 20.6c-2.6-1.1-4.9-3-5.9-5.1l-2.5 2.2c-2.1 1.5-5 2.3-8.5 2.3-9.4 0-14.5-4.8-14.5-13.2 0-9.9 6.8-14.5 20.2-14.5.8 0 1.6 0 2.5.1v-1.7c0-4.7-.9-6.3-4.9-6.3-3.5 0-7.7 1.7-12.2 4.8l-4.7-7.9c2.2-1.4 3.9-2.2 6.8-3.5 4.1-1.7 7.6-2.5 11.5-2.5 7.1 0 11.9 2.6 13.6 7.3.6 1.7.8 3 .7 7.6l-.2 14.2c-.1 4.6.2 6.6 4 9.4zm-70.1-2.2V1.6h32.6l-1.5 9.4h-19.6v13.3h16.4v9.4h-16.2V49h21.6v9.8z" fill="#295a78"/>
</svg>
